<svg width="177" height="53" viewBox="0 0 177 53" fill="none" xmlns="http://www.w3.org/2000/svg">
<path d="M139.758 50.1709V35.6709H144.282V36.8599C145.355 35.8159 146.834 35.3809 148.284 35.3809C150.314 35.3809 151.967 36.3089 152.953 37.8169C154.345 36.2509 155.534 35.3809 157.912 35.3809C161.189 35.3809 163.538 37.8169 163.538 41.2969V50.1709H159.014V42.6599C159.014 40.8909 157.97 39.8469 156.52 39.8469C155.041 39.8469 153.91 41.0069 153.91 42.7179V50.1709H149.386V42.6599C149.386 40.8909 148.342 39.8469 146.892 39.8469C145.413 39.8469 144.282 41.0069 144.282 42.7179V50.1709H139.758Z" fill="#075E54"/>
<path d="M122.015 42.9209C122.015 38.7739 124.712 35.3809 128.859 35.3809C130.309 35.3809 131.614 35.9609 132.571 36.8599V35.6709H137.095V50.1709H132.571V48.8949C131.643 49.8519 130.338 50.4609 128.859 50.4609C124.712 50.4609 122.015 47.0969 122.015 42.9209ZM129.555 39.9049C127.902 39.9049 126.539 41.2679 126.539 42.9209C126.539 44.5739 127.902 45.9369 129.555 45.9369C131.208 45.9369 132.571 44.5739 132.571 42.9209C132.571 41.2679 131.208 39.9049 129.555 39.9049Z" fill="#075E54"/>
<path d="M106.297 42.9209C106.297 38.7159 109.545 35.3809 113.721 35.3809C117.868 35.3809 120.623 38.3389 120.623 42.5149C120.623 43.2109 120.565 43.9069 120.449 44.6029H110.589C111.169 45.9079 112.474 46.6329 114.011 46.6329C115.258 46.6329 116.389 46.1689 117.085 45.3569L119.753 48.0539C118.506 49.5039 116.534 50.4609 113.895 50.4609C109.661 50.4609 106.297 47.1259 106.297 42.9209ZM113.576 39.2379C112.155 39.2379 110.763 40.0789 110.531 41.5869H116.621C116.389 40.0789 115.026 39.2379 113.576 39.2379Z" fill="#075E54"/>
<path d="M101.631 50.1709H97.1074V35.6709H101.631V36.8889C102.675 35.8449 104.125 35.3809 105.633 35.3809V39.8469C105.401 39.7889 105.14 39.7599 104.908 39.7599C103.139 39.7599 101.631 41.0069 101.631 42.7179V50.1709Z" fill="#075E54"/>
<path d="M84.5977 35.6692H85.4097C86.3957 35.6692 87.0337 35.0312 87.0337 34.0742V31.7832H91.5577V35.6692H94.8347V40.1932H91.5577V43.2672C91.5577 45.5582 91.8477 46.1672 93.0367 46.1672C93.5587 46.1672 94.1097 46.0512 94.8347 45.8772V50.1692C94.1387 50.3722 92.9787 50.4592 92.2827 50.4592C88.6867 50.4592 87.0337 48.8062 87.0337 45.1812V40.1932H84.5977V35.6692Z" fill="#075E54"/>
<path d="M67.0869 47.096L70.1029 43.703C71.9879 45.24 73.7279 45.965 76.0479 45.965C78.1359 45.965 79.4119 45.153 79.4119 44.051C79.4119 42.746 77.3819 42.137 74.3949 41.296C71.2049 40.397 68.2469 38.86 68.2469 35.177C68.2469 31.146 71.8429 29 75.7869 29C78.5419 29 81.6449 30.363 83.3559 32.335L80.1659 35.525C78.8609 34.22 77.1499 33.524 75.3229 33.524C73.8729 33.524 72.7999 34.046 72.7999 35.119C72.7999 36.221 74.6559 36.685 77.4109 37.439C81.4419 38.541 83.9359 40.484 83.9359 43.906C83.9359 48.14 79.9629 50.489 75.8449 50.489C72.3649 50.489 69.5809 49.213 67.0869 47.096Z" fill="#075E54"/>
<path d="M166.415 6.6692H167.227C168.213 6.6692 168.851 6.0312 168.851 5.0742V2.7832H173.375V6.6692H176.652V11.1932H173.375V14.2672C173.375 16.5582 173.665 17.1672 174.854 17.1672C175.376 17.1672 175.927 17.0512 176.652 16.8772V21.1692C175.956 21.3722 174.796 21.4592 174.1 21.4592C170.504 21.4592 168.851 19.8062 168.851 16.1812V11.1932H166.415V6.6692Z" fill="#25D366"/>
<path d="M160.084 21.4609C155.937 21.4609 152.544 18.0679 152.544 13.9209C152.544 9.74486 155.937 6.38086 160.084 6.38086C162.23 6.38086 164.173 7.27986 165.536 8.72986L162.346 11.9199C161.795 11.3109 160.983 10.9049 160.084 10.9049C158.431 10.9049 157.068 12.2679 157.068 13.9209C157.068 15.5739 158.431 16.9369 160.084 16.9369C160.983 16.9369 161.795 16.5309 162.346 15.9219L165.536 19.1119C164.173 20.5619 162.23 21.4609 160.084 21.4609Z" fill="#25D366"/>
<path d="M136.826 13.9209C136.826 9.71586 140.074 6.38086 144.25 6.38086C148.397 6.38086 151.152 9.33886 151.152 13.5149C151.152 14.2109 151.094 14.9069 150.978 15.6029H141.118C141.698 16.9079 143.003 17.6329 144.54 17.6329C145.787 17.6329 146.918 17.1689 147.614 16.3569L150.282 19.0539C149.035 20.5039 147.063 21.4609 144.424 21.4609C140.19 21.4609 136.826 18.1259 136.826 13.9209ZM144.105 10.2379C142.684 10.2379 141.292 11.0789 141.06 12.5869H147.15C146.918 11.0789 145.555 10.2379 144.105 10.2379Z" fill="#25D366"/>
<path d="M125.392 21.1709H120.868V6.67086H125.392V7.85986C126.465 6.81586 127.944 6.38086 129.394 6.38086C132.671 6.38086 135.02 8.81686 135.02 12.2969V21.1709H130.496V13.6599C130.496 11.8909 129.452 10.8469 128.002 10.8469C126.523 10.8469 125.392 12.0069 125.392 13.7179V21.1709Z" fill="#25D366"/>
<path d="M108.57 21.1709H104.046V6.67086H108.57V7.85986C109.643 6.81586 111.122 6.38086 112.572 6.38086C115.849 6.38086 118.198 8.81686 118.198 12.2969V21.1709H113.674V13.6599C113.674 11.8909 112.63 10.8469 111.18 10.8469C109.701 10.8469 108.57 12.0069 108.57 13.7179V21.1709Z" fill="#25D366"/>
<path d="M94.6923 6.38086C98.8683 6.38086 102.232 9.74486 102.232 13.9209C102.232 18.0679 98.8683 21.4609 94.6923 21.4609C90.5453 21.4609 87.1523 18.0679 87.1523 13.9209C87.1523 9.74486 90.5453 6.38086 94.6923 6.38086ZM91.6763 13.9209C91.6763 15.5739 93.0393 16.9369 94.6923 16.9369C96.3453 16.9369 97.7083 15.5739 97.7083 13.9209C97.7083 12.2679 96.3453 10.9049 94.6923 10.9049C93.0393 10.9049 91.6763 12.2679 91.6763 13.9209Z" fill="#25D366"/>
<path d="M7.8478 0.390625H50C51.6569 0.390625 53 1.73377 53 3.39062V19.3524C53 20.5827 52.2489 21.6882 51.1051 22.1414L4.70358 40.5269C2.58531 41.3663 0.341434 39.6308 0.621187 37.3696L4.8705 3.02228C5.05644 1.51933 6.33338 0.390625 7.8478 0.390625Z" fill="#25D366"/>
<path d="M34.0917 35.3291L50.1452 27.7401C51.472 27.1129 53 28.0807 53 29.5483V48.5207C53 50.1443 51.1676 51.0913 49.8431 50.1521L33.7896 38.7687C32.5418 37.8839 32.7088 35.9828 34.0917 35.3291Z" fill="#075E54"/>
<path d="M78.6582 0C80.9911 9.89052e-05 83.1435 0.738053 84.9062 2.00391C85.8813 2.70418 85.8489 4.09552 85.0039 4.94824C84.0953 5.8651 82.605 5.77487 81.4541 5.19043C80.6129 4.7632 79.6653 4.52449 78.6582 4.52441C75.2362 4.52441 72.4521 7.30847 72.4521 10.7305C72.4523 12.2935 73.034 13.7222 73.9912 14.8145L73.8857 17.7715C73.8733 18.1202 74.2129 18.3743 74.5439 18.2637L78.5264 16.9316C78.5701 16.9326 78.6143 16.9355 78.6582 16.9355C79.668 16.9355 80.618 16.6951 81.4609 16.2656C82.6074 15.6817 84.0934 15.592 84.999 16.5059C85.8453 17.36 85.8724 18.7547 84.8936 19.4531C83.1332 20.7093 80.9855 21.4599 78.6582 21.46C72.7424 21.46 67.928 16.6463 67.9277 10.7305C67.9277 4.81447 72.7422 0 78.6582 0Z" fill="#25D366"/>
</svg>
